<svg xmlns="http://www.w3.org/2000/svg" version="1.1" xmlns:xlink="http://www.w3.org/1999/xlink" xmlns:svgjs="http://svgjs.dev/svgjs" width="2000" height="343" viewBox="0 0 2000 343"><g transform="matrix(1,0,0,1,-1.2121212121213603,-0.9070392122418411)"><svg viewBox="0 0 396 68" data-background-color="#636365" preserveAspectRatio="xMidYMid meet" height="343" width="2000" xmlns="http://www.w3.org/2000/svg" xmlns:xlink="http://www.w3.org/1999/xlink"><g id="tight-bounds" transform="matrix(1,0,0,1,0.24000000000003752,0.17982118493424082)"><svg viewBox="0 0 395.5199999999999 67.64035763013153" height="67.64035763013153" width="395.5199999999999"><g><svg viewBox="0 0 491.44436195618755 84.0449848251121" height="67.64035763013153" width="395.5199999999999"><g transform="matrix(1,0,0,1,95.92436195618757,25.971120215246632)"><svg viewBox="0 0 395.52 32.10274439461883" height="32.10274439461883" width="395.52"><g id="textblocktransform"><svg viewBox="0 0 395.52 32.10274439461883" height="32.10274439461883" width="395.52" id="textblock"><g><svg viewBox="0 0 395.52 32.10274439461883" height="32.10274439461883" width="395.52"><g transform="matrix(1,0,0,1,0,0)"><svg width="395.52" viewBox="5 -35.6 557.46 45.25" height="32.10274439461883" data-palette-color="#aefeee"><path d="M5-28.75L5-28.75 11.3-28.75 11.3-17.2 21-17.2 21-11.5 11.3-11.5 11.3 0 5 0 5-28.75ZM39.45-28.75L39.45-28.75 33.15-28.75 33.15-17.2 23.45-17.2 23.45-11.5 33.15-11.5 33.15 0 39.45 0 39.45-28.75ZM44.45-3.4L44.45-9.75 50.15-13.2 58.35-13.2 58.35-9.35 50.8-9.35 50.8-5.25 58.35-5.25 58.35 0.05 50.15 0.05 44.45-3.4ZM50.8-15.05L44.45-15.05 44.45-18.5 50.15-22 58.35-22 58.35-17.3 50.8-17.3 50.8-15.05ZM74.45 0.05L74.45-18.5 68.75-22 60.55-22 60.55-17.3 68.1-17.3 68.1-13.2 60.55-13.2 60.55-9.35 68.1-9.35 68.1-5.25 60.75-5.25 60.75 0.05 74.45 0.05ZM112.75-28.8L112.75 0 99.15 0 99.15-5.25 106.45-5.25 106.45-17.25 98.95-17.25 98.95-21.9 106.45-21.9 106.45-28.8 112.75-28.8ZM82.95-3.45L82.95-18.45 88.65-21.9 96.75-21.9 96.75-17.25 89.05-17.25 89.05-5.25 96.55-5.25 96.55 0 88.65 0 82.95-3.45ZM121.74-22L128.04-22 128.04 0.05 121.74 0.05 121.74-22ZM127.94-28.7L127.94-24.05 121.74-24.05 121.74-28.7 127.94-28.7ZM166.24-18.55L166.24-12.85 160.34-9.4 152.34-9.4 152.34-13.25 159.89-13.25 159.89-17.35 152.34-17.35 152.34-22.05 160.34-22.05 166.24-18.55ZM159.69-6.95L166.24-6.95 166.24-3.45 160.34 0 152.34 0 152.34-5.3 159.69-5.3 159.69-6.95ZM136.04-18.55L136.04-3.45 141.94 0 149.89 0 149.89-5.3 142.34-5.3 142.34-9.4 149.89-9.4 149.89-13.25 142.34-13.25 142.34-17.35 149.89-17.35 149.89-22.05 141.94-22.05 136.04-18.55ZM174.24-27.6L174.24-35.6 178.44-35.6 178.44-27.7 174.24-27.6ZM216.24-9.7L216.24-3.45 210.53 0 202.49 0 202.49-5.25 210.19-5.25 210.19-9.3 202.63-9.3 202.63-13.2 210.53-13.2 216.24-9.7ZM186.44-12.75L186.44-18.4 192.13-21.85 200.24-21.85 200.24-17.2 192.74-17.2 192.74-13.2 200.24-13.2 200.24-9.3 192.13-9.3 186.44-12.75ZM186.44-6.95L192.74-6.95 192.74-5.25 200.24-5.25 200.24 0 192.13 0 186.44-3.45 186.44-6.95ZM216.24-15.05L209.99-15.05 209.99-17.2 202.49-17.2 202.49-21.85 210.53-21.85 216.24-18.4 216.24-15.05ZM240.23-28.75L240.23-28.75 256.43-28.75 256.43-23.1 246.73-23.1 246.73-17.2 256.43-17.2 256.43-11.35 246.73-11.35 246.73 0 240.23 0 240.23-28.75ZM274.88-14.75L274.88-14.75 274.88-25.3 269.03-28.75 258.68-28.75 258.68-23.1 268.38-23.1 268.38-17.2 258.68-17.2 258.68-11.35 269.03-11.35 274.88-14.75ZM279.78-22L286.08-22 286.08 0.05 279.78 0.05 279.78-22ZM285.98-28.7L285.98-24.05 279.78-24.05 279.78-28.7 285.98-28.7ZM294.07-3.4L294.07-9.75 299.77-13.2 307.97-13.2 307.97-9.35 300.43-9.35 300.43-5.25 307.97-5.25 307.97 0.05 299.77 0.05 294.07-3.4ZM300.43-15.05L294.07-15.05 294.07-18.5 299.77-22 307.97-22 307.97-17.3 300.43-17.3 300.43-15.05ZM324.07 0.05L324.07-18.5 318.38-22 310.18-22 310.18-17.3 317.72-17.3 317.72-13.2 310.18-13.2 310.18-9.35 317.72-9.35 317.72-5.25 310.38-5.25 310.38 0.05 324.07 0.05ZM333.57-0.05L333.57-22 339.92-22 339.92-19.85 347.32-22 347.32-17.3 339.92-17.3 339.92-0.05 333.57-0.05ZM363.52-0.05L363.52-18.55 357.62-22 349.72-22 349.72-17.3 357.27-17.3 357.27-0.05 363.52-0.05ZM368.42-3.5L368.42-18.55 374.27-22 382.17-22 382.17-17.3 374.67-17.3 374.67-5.4 382.17-5.4 382.17-0.05 374.27-0.05 368.42-3.5ZM397.77-3.5L397.77-18.55 391.92-22 383.97-22 383.97-17.3 391.52-17.3 391.52-5.4 383.97-5.4 383.97-0.05 391.92-0.05 397.77-3.5ZM420.26-14.75L420.26-25.3 425.96-28.75 436.26-28.75 436.26-22.85 426.37-22.85 426.37-17.2 436.26-17.2 436.26-11.35 425.96-11.35 420.26-14.75ZM454.71-3.4L454.71-13.75 448.81-17.2 438.51-17.2 438.51-11.35 448.41-11.35 448.41-5.65 438.71-5.65 438.71 0 448.81 0 454.71-3.4ZM420.26-9.1L426.56-9.1 426.56-5.65 436.26-5.65 436.26 0 426.12 0 420.26-3.4 420.26-9.1ZM448.41-19.45L454.71-19.45 454.71-25.3 448.81-28.75 438.51-28.75 438.51-22.85 448.41-22.85 448.41-19.45ZM459.61 0.05L459.61-28.75 465.76-28.75 465.76-22 473.36-22 473.36-17.2 465.76-17.2 465.76 0.05 459.61 0.05ZM489.36 0.05L489.36-18.55 483.71-22 475.56-22 475.56-17.2 483.06-17.2 483.06 0.05 489.36 0.05ZM494.26-3.5L494.26-18.55 500.11-22 508.01-22 508.01-17.3 500.51-17.3 500.51-5.4 508.01-5.4 508.01-0.05 500.11-0.05 494.26-3.5ZM523.61-3.5L523.61-18.55 517.76-22 509.81-22 509.81-17.3 517.36-17.3 517.36-5.4 509.81-5.4 509.81-0.05 517.76-0.05 523.61-3.5ZM562.46-18.55L562.46-6.4 556.86-3 548.96-3 548.96-7 556.21-7 556.21-17.3 548.66-17.3 548.66-22 556.86-22 562.46-18.55ZM532.61 9.65L532.61-22 546.46-22 546.46-17.3 538.96-17.3 538.96-7 546.21-7 546.21-3 538.96-3 538.96 9.65 532.61 9.65Z" opacity="1" transform="matrix(1,0,0,1,0,0)" fill="#aefeee" class="wordmark-text-0" data-fill-palette-color="primary" id="text-0"></path></svg></g></svg></g></svg></g></svg></g><g><svg viewBox="0 0 88.34567447048353 84.0449848251121" height="84.0449848251121" width="88.34567447048353"><g><svg xmlns="http://www.w3.org/2000/svg" xmlns:xlink="http://www.w3.org/1999/xlink" version="1.1" x="0" y="0" viewBox="3.202 4.861000000000001 95.09000536920199 90.46099999999998" enable-background="new 0 0 100 100" xml:space="preserve" height="84.0449848251121" width="88.34567447048353" class="icon-icon-0" data-fill-palette-color="accent" id="icon-0"><g fill="#f9b2fa" data-fill-palette-color="accent"><path d="M9.767 4.862v58.724c0 0.588 0.481 1.068 1.068 1.068h6.644c0.587 0 1.068-0.48 1.068-1.068V4.862H9.767zM16.945 64.012H11.37c-0.587 0-1.007-0.477-0.932-1.06 0 0 0.275-2.007 0.398-3.104s0.901-1.386 1.246-1.386h4.151c0.345 0 1.111 0.335 1.246 1.388s0.398 3.104 0.398 3.104C17.953 63.535 17.533 64.012 16.945 64.012z" fill="#f9b2fa" data-fill-palette-color="accent"></path></g><g fill="#f9b2fa" data-fill-palette-color="accent"><path d="M26.958 4.862v58.724c0 0.588 0.481 1.068 1.068 1.068h6.644c0.587 0 1.068-0.48 1.068-1.068V4.862H26.958zM34.136 64.012h-5.575c-0.587 0-1.007-0.477-0.932-1.06 0 0 0.275-2.007 0.398-3.104s0.901-1.386 1.246-1.386h4.151c0.345 0 1.111 0.335 1.246 1.388s0.398 3.104 0.398 3.104C35.144 63.535 34.724 64.012 34.136 64.012z" fill="#f9b2fa" data-fill-palette-color="accent"></path></g><g fill="#f9b2fa" data-fill-palette-color="accent"><path d="M50.368 4.862v58.724c0 0.588 0.481 1.068 1.067 1.068h6.645c0.587 0 1.068-0.48 1.068-1.068V4.862H50.368zM57.546 64.012h-5.575c-0.586 0-1.007-0.477-0.932-1.06 0 0 0.275-2.007 0.398-3.104 0.122-1.098 0.9-1.386 1.246-1.386h4.15c0.346 0 1.111 0.335 1.246 1.388s0.398 3.104 0.398 3.104C58.555 63.535 58.135 64.012 57.546 64.012z" fill="#f9b2fa" data-fill-palette-color="accent"></path></g><g fill="#f9b2fa" data-fill-palette-color="accent"><path d="M65.757 4.862v58.724c0 0.588 0.481 1.068 1.067 1.068h6.645c0.587 0 1.068-0.48 1.068-1.068V4.862H65.757zM72.935 64.012h-5.575c-0.586 0-1.007-0.477-0.932-1.06 0 0 0.275-2.007 0.398-3.104 0.122-1.098 0.9-1.386 1.246-1.386h4.15c0.346 0 1.111 0.335 1.246 1.388s0.398 3.104 0.398 3.104C73.943 63.535 73.523 64.012 72.935 64.012z" fill="#f9b2fa" data-fill-palette-color="accent"></path></g><g fill="#f9b2fa" data-fill-palette-color="accent"><path d="M82.614 4.862v58.724c0 0.588 0.481 1.068 1.067 1.068h6.645c0.587 0 1.068-0.48 1.068-1.068V4.862H82.614zM89.792 64.012h-5.575c-0.586 0-1.007-0.477-0.932-1.06 0 0 0.275-2.007 0.398-3.104 0.122-1.098 0.9-1.386 1.246-1.386h4.15c0.346 0 1.111 0.335 1.246 1.388s0.398 3.104 0.398 3.104C90.801 63.535 90.381 64.012 89.792 64.012z" fill="#f9b2fa" data-fill-palette-color="accent"></path></g><rect x="19.345" y="4.862" width="6.815" height="0.356" fill="#f9b2fa" data-fill-palette-color="accent"></rect><rect x="59.979" y="4.868" width="4.96" height="0.345" fill="#f9b2fa" data-fill-palette-color="accent"></rect><rect x="75.365" y="4.868" width="6.482" height="0.345" fill="#f9b2fa" data-fill-palette-color="accent"></rect><path d="M97.053 4.868h-4.709v0.345h4.709c0.494 0 0.896 0.402 0.896 0.896v87.967c0 0.494-0.401 0.896-0.896 0.896H85.656c-0.494 0-0.896-0.402-0.896-0.896V65.375h-0.346v28.701c0 0.002 0.001 0.003 0.001 0.005-0.003 0.492-0.401 0.892-0.896 0.892H72.124c-0.494 0-0.896-0.402-0.896-0.896V65.375h-0.347v28.701c0 0.001 0.001 0.002 0.001 0.002-0.002 0.493-0.401 0.895-0.896 0.895H58.59c-0.494 0-0.896-0.402-0.896-0.896V65.375h-0.346-0.001v28.701h0.001c0 0.494-0.4 0.896-0.896 0.896H45.056c-0.494 0-0.896-0.402-0.896-0.896V6.109c0-0.494 0.402-0.896 0.896-0.896h4.425V4.868h-4.425c-0.464 0-0.855 0.268-1.068 0.646-0.213-0.383-0.607-0.653-1.076-0.653h-6.346v0.356h6.346c0.491 0 0.89 0.399 0.89 0.89v87.967c0 0.491-0.399 0.891-0.89 0.891H31.516c-0.491 0-0.89-0.399-0.89-0.891v-28.7H30.27v28.701h-0.001c0 0.49-0.399 0.891-0.89 0.891H17.982c-0.491 0-0.89-0.398-0.89-0.891V65.375h-0.356v28.701c0 0.49-0.399 0.891-0.89 0.891H4.449c-0.491 0-0.89-0.398-0.89-0.891V6.109c0-0.491 0.399-0.89 0.89-0.89h4.307V4.862H4.449c-0.688 0-1.247 0.559-1.247 1.247v87.967c0 0.688 0.559 1.246 1.247 1.246h11.396c0.465 0 0.854-0.266 1.069-0.643 0.214 0.377 0.604 0.643 1.069 0.643h11.396c0.465 0 0.854-0.266 1.069-0.643 0.214 0.377 0.604 0.643 1.069 0.643h11.396c0.468 0 0.862-0.27 1.075-0.651 0.212 0.379 0.603 0.646 1.067 0.646h11.396c0.465 0 0.855-0.268 1.068-0.646 0.212 0.379 0.604 0.646 1.068 0.646h11.397c0.466 0 0.856-0.268 1.068-0.646 0.213 0.38 0.604 0.646 1.068 0.646H83.52c0.465 0 0.855-0.268 1.067-0.646 0.213 0.379 0.604 0.646 1.068 0.646h11.396c0.686 0 1.241-0.557 1.241-1.24V6.109C98.294 5.425 97.737 4.868 97.053 4.868z" fill="#f9b2fa" data-fill-palette-color="accent"></path></svg></g></svg></g></svg></g><defs></defs></svg><rect width="395.5199999999999" height="67.64035763013153" fill="none" stroke="none" visibility="hidden"></rect></g></svg></g></svg>